<?xml version="1.0" encoding="UTF-8"?>
<svg id="Layer_2" data-name="Layer 2" xmlns="http://www.w3.org/2000/svg" viewBox="0 0 865.25 191.58">
  <defs>
    <style>
      .cls-1 {
        fill: #ff0031;
      }

      .cls-2 {
        fill: #fff;
      }
    </style>
  </defs>
  <g id="Layer_1-2" data-name="Layer 1">
    <g>
      <path class="cls-1" d="M93.97,191.58c-5.22,0-10.3-2.73-13.06-7.6l-29.28-51.58c-2.64-4.64-2.6-10.34.08-14.95,2.69-4.61,7.62-7.45,12.96-7.45h45.84v-47.4l-40.48-31.77-40.04,31.72v113.29c0,8.28-6.72,15-15,15s-15-6.72-15-15V61.13c0-8.31,3.74-16.04,10.25-21.2L53.23,5.87c9.84-7.8,23.62-7.83,33.5-.08l43.43,34.09c6.58,5.16,10.35,12.92,10.35,21.28v63.83c0,8.28-6.72,15-15,15h-35.08l16.56,29.18c4.09,7.2,1.56,16.36-5.64,20.45-2.34,1.33-4.88,1.96-7.39,1.96Z"/>
      <g>
        <path class="cls-2" d="M271.23,101.34c3.05-4.77,4.57-10.25,4.57-16.43v-.13c0-6.26-1.33-11.62-3.99-16.07-2.66-4.45-6.48-7.87-11.47-10.27s-10.98-3.6-17.98-3.6h-37.01c-.89,0-1.62.72-1.62,1.62v90.28c0,.89.72,1.62,1.62,1.62h16.34c.89,0,1.62-.72,1.62-1.62v-30.6c0-.89.72-1.62,1.62-1.62h14.07l16.92,32.95c.28.54.83.88,1.44.88h18.54c1.22,0,2-1.3,1.42-2.38l-17.6-32.88c-.43-.81-.11-1.83.73-2.21,4.46-2.07,8.06-5.25,10.79-9.54ZM255.77,84.97c0,4.58-1.38,8.17-4.15,10.76-2.77,2.59-6.57,3.89-11.41,3.89h-15.3c-.89,0-1.62-.72-1.62-1.62v-26.19c0-.89.72-1.62,1.62-1.62h15.04c4.8,0,8.63,1.32,11.5,3.95,2.87,2.64,4.31,6.2,4.31,10.69v.13Z"/>
        <path class="cls-2" d="M334.86,81.77c-4.95-2.87-10.81-4.31-17.59-4.31s-12.67,1.48-17.66,4.44c-4.99,2.96-8.87,7.15-11.63,12.57-2.77,5.42-4.15,11.83-4.15,19.21v.06c0,7.39,1.38,13.78,4.15,19.18,2.76,5.4,6.7,9.56,11.79,12.47,5.1,2.92,11.19,4.37,18.27,4.37,4.97,0,9.3-.65,12.99-1.94,3.69-1.3,6.83-3.02,9.4-5.18,2.57-2.16,4.61-4.54,6.12-7.13,1.51-2.59,2.53-5.16,3.05-7.71l.19-.71h-17.37l-.13.39c-.43,1.3-1.25,2.57-2.46,3.82-1.21,1.25-2.77,2.29-4.67,3.11-1.9.82-4.15,1.23-6.74,1.23-3.28,0-6.11-.72-8.49-2.17-2.38-1.45-4.2-3.53-5.48-6.25-.99-2.11-1.59-4.55-1.81-7.31-.08-.94.67-1.76,1.62-1.76h44.49c.89,0,1.62-.72,1.62-1.62v-4.28c0-7-1.35-13.11-4.05-18.34-2.7-5.23-6.52-9.28-11.47-12.15ZM309.78,93.72c2.27-1.43,4.87-2.14,7.81-2.14s5.52.69,7.74,2.07c2.22,1.38,3.96,3.45,5.22,6.19.6,1.31,1.05,2.78,1.36,4.4.19.99-.58,1.91-1.59,1.91h-25.63c-1.02,0-1.79-.93-1.59-1.93.32-1.56.77-2.98,1.37-4.26,1.27-2.74,3.05-4.83,5.31-6.25Z"/>
        <path class="cls-2" d="M400.61,77.46c-5.23,0-9.61,1.15-13.16,3.43-3.54,2.29-6.22,5.42-8.04,9.4h-.39v-9.79c0-.89-.72-1.62-1.62-1.62h-15.69c-.89,0-1.62.72-1.62,1.62v66.24c0,.89.72,1.62,1.62,1.62h15.69c.89,0,1.62-.72,1.62-1.62v-38.3c0-3.02.57-5.68,1.72-7.97,1.14-2.29,2.75-4.08,4.83-5.38s4.51-1.94,7.32-1.94c4.23,0,7.42,1.25,9.56,3.76,2.14,2.51,3.21,6.03,3.21,10.56v39.28c0,.89.72,1.62,1.62,1.62h15.69c.89,0,1.62-.72,1.62-1.62v-43.23c0-8.17-2.08-14.55-6.25-19.15-4.17-4.6-10.08-6.9-17.72-6.9Z"/>
        <path class="cls-2" d="M459,61.9h-15.89c-.89,0-1.62.72-1.62,1.62v13.75c0,.89-.72,1.62-1.62,1.62h-6.42c-.89,0-1.62.72-1.62,1.62v11.02c0,.89.72,1.62,1.62,1.62h6.42c.89,0,1.62.72,1.62,1.62v34.16c0,7.43,1.86,12.77,5.57,16.01,3.72,3.24,9.42,4.86,17.11,4.86,1.99,0,3.75-.08,5.28-.23.9-.09,1.71-.18,2.44-.28.81-.11,1.41-.79,1.41-1.6v-10.64c0-.96-.84-1.7-1.8-1.61,0,0-.01,0-.02,0-.65.06-1.4.1-2.27.1-2.85,0-5-.64-6.45-1.91-1.45-1.27-2.17-3.53-2.17-6.77v-32.08c0-.89.72-1.62,1.62-1.62h9.47c.89,0,1.62-.72,1.62-1.62v-11.02c0-.89-.72-1.62-1.62-1.62h-9.47c-.89,0-1.62-.72-1.62-1.62v-13.75c0-.89-.72-1.62-1.62-1.62Z"/>
        <path class="cls-2" d="M529.63,80.34c-4.41-1.92-9.61-2.88-15.62-2.88s-11.35.94-15.78,2.82c-4.43,1.88-7.88,4.48-10.37,7.81-2.48,3.33-3.92,7.13-4.31,11.41l-.07.78h17.37l.13-.58c.47-2.25,1.75-4.09,3.82-5.54,2.07-1.45,4.88-2.17,8.42-2.17s6.54.89,8.49,2.66c1.94,1.77,2.92,4.19,2.92,7.26v2.73c0,.85-.66,1.56-1.52,1.61l-15.66.97c-5.75.39-10.64,1.45-14.68,3.18-4.04,1.73-7.12,4.09-9.23,7.1-2.12,3-3.18,6.62-3.18,10.85v.13c0,4.06.98,7.68,2.95,10.85s4.71,5.66,8.23,7.45c3.52,1.79,7.59,2.69,12.22,2.69,3.02,0,5.84-.45,8.46-1.36s4.94-2.22,6.97-3.95c2.03-1.73,3.71-3.76,5.05-6.09h.39v8.69c0,.89.72,1.62,1.62,1.62h15.69c.89,0,1.62-.72,1.62-1.62v-46.01c0-4.67-1.22-8.75-3.66-12.25-2.44-3.5-5.87-6.21-10.27-8.13ZM522.73,129.46c-1.28,1.92-3.03,3.43-5.25,4.54-2.23,1.1-4.74,1.65-7.55,1.65-3.28,0-5.9-.72-7.84-2.17-1.94-1.45-2.92-3.44-2.92-5.99v-.13c0-2.46.95-4.43,2.85-5.9,1.9-1.47,4.67-2.31,8.29-2.53l12.6-.84c.93-.06,1.72.68,1.72,1.61v3.31c0,2.38-.64,4.53-1.91,6.45Z"/>
        <path class="cls-2" d="M577.84,133.71l32.52-42.4c.22-.28.33-.63.33-.98v-9.82c0-.89-.72-1.62-1.62-1.62h-52.82c-.89,0-1.62.72-1.62,1.62v11.02c0,.89.72,1.62,1.62,1.62h32.73v.39l-34.58,43.63c-.23.29-.35.64-.35,1v8.58c0,.89.72,1.62,1.62,1.62h54.18c.89,0,1.62-.72,1.62-1.62v-11.02c0-.89-.72-1.62-1.62-1.62h-32.02v-.39Z"/>
        <path class="cls-2" d="M667.73,118.8c0,2.25-.32,4.31-.97,6.19-.65,1.88-1.58,3.5-2.79,4.86-1.21,1.36-2.67,2.41-4.37,3.14-1.71.73-3.62,1.1-5.74,1.1-4.23,0-7.42-1.25-9.56-3.76-2.14-2.5-3.21-6.03-3.21-10.56v-39.27c0-.89-.72-1.62-1.62-1.62h-15.69c-.89,0-1.62.72-1.62,1.62v43.23c0,5.4.93,10.04,2.79,13.93,1.86,3.89,4.58,6.88,8.17,8.98,3.58,2.09,7.91,3.14,12.96,3.14,3.54,0,6.68-.52,9.43-1.56,2.74-1.04,5.1-2.53,7.06-4.47,1.97-1.94,3.53-4.23,4.7-6.87h.45v9.85c0,.89.72,1.62,1.62,1.62h15.69c.89,0,1.62-.72,1.62-1.62v-66.24c0-.89-.72-1.62-1.62-1.62h-15.69c-.89,0-1.62.72-1.62,1.62v38.3Z"/>
        <path class="cls-2" d="M747.4,81.77c-4.95-2.87-10.81-4.31-17.59-4.31s-12.67,1.48-17.66,4.44c-4.99,2.96-8.87,7.15-11.63,12.57-2.77,5.42-4.15,11.83-4.15,19.21v.06c0,7.39,1.38,13.78,4.15,19.18,2.76,5.4,6.7,9.56,11.79,12.47,5.1,2.92,11.19,4.37,18.27,4.37,4.97,0,9.3-.65,12.99-1.94,3.69-1.3,6.83-3.02,9.4-5.18,2.57-2.16,4.61-4.54,6.12-7.13,1.51-2.59,2.53-5.16,3.05-7.71l.19-.71h-17.37l-.13.39c-.43,1.3-1.25,2.57-2.46,3.82-1.21,1.25-2.77,2.29-4.67,3.11-1.9.82-4.15,1.23-6.74,1.23-3.28,0-6.11-.72-8.49-2.17-2.38-1.45-4.2-3.53-5.48-6.25-.99-2.11-1.59-4.55-1.81-7.31-.08-.94.67-1.76,1.62-1.76h44.49c.89,0,1.62-.72,1.62-1.62v-4.28c0-7-1.35-13.11-4.05-18.34-2.7-5.23-6.52-9.28-11.47-12.15ZM722.32,93.72c2.27-1.43,4.87-2.14,7.81-2.14s5.52.69,7.74,2.07c2.22,1.38,3.96,3.45,5.22,6.19.6,1.31,1.05,2.78,1.36,4.4.19.99-.58,1.91-1.59,1.91h-25.63c-1.02,0-1.79-.93-1.59-1.93.32-1.56.77-2.98,1.37-4.26,1.27-2.74,3.05-4.83,5.31-6.25Z"/>
        <rect class="cls-2" x="773.1" y="54.84" width="18.92" height="93.51" rx="1.62" ry="1.62"/>
        <path class="cls-2" d="M861.59,88.47c-2.44-3.5-5.87-6.21-10.27-8.13-4.41-1.92-9.61-2.88-15.62-2.88s-11.35.94-15.78,2.82c-4.43,1.88-7.88,4.48-10.37,7.81-2.48,3.33-3.92,7.13-4.31,11.41l-.07.78h17.37l.13-.58c.47-2.25,1.75-4.09,3.82-5.54,2.07-1.45,4.88-2.17,8.42-2.17s6.54.89,8.49,2.66c1.94,1.77,2.92,4.19,2.92,7.26v2.73c0,.85-.66,1.56-1.52,1.61l-15.66.97c-5.75.39-10.64,1.45-14.68,3.18-4.04,1.73-7.12,4.09-9.23,7.1-2.12,3-3.18,6.62-3.18,10.85v.13c0,4.06.98,7.68,2.95,10.85s4.71,5.66,8.23,7.45c3.52,1.79,7.59,2.69,12.22,2.69,3.02,0,5.84-.45,8.46-1.36s4.94-2.22,6.97-3.95c2.03-1.73,3.71-3.76,5.05-6.09h.39v8.69c0,.89.72,1.62,1.62,1.62h15.69c.89,0,1.62-.72,1.62-1.62v-46.01c0-4.67-1.22-8.75-3.66-12.25ZM844.41,129.46c-1.28,1.92-3.03,3.43-5.25,4.54-2.23,1.1-4.74,1.65-7.55,1.65-3.28,0-5.9-.72-7.84-2.17-1.94-1.45-2.92-3.44-2.92-5.99v-.13c0-2.46.95-4.43,2.85-5.9,1.9-1.47,4.67-2.31,8.29-2.53l12.6-.84c.93-.06,1.72.68,1.72,1.61v3.31c0,2.38-.64,4.53-1.91,6.45Z"/>
      </g>
    </g>
  </g>
</svg>