<?xml version="1.0" encoding="UTF-8"?>
<svg id="Layer_2" data-name="Layer 2" xmlns="http://www.w3.org/2000/svg" viewBox="0 0 212.94 212.94">
  <defs>
    <style>
      .cls-1 {
        fill: #ff0031;
      }

      .cls-2 {
        fill: #fff;
      }
    </style>
  </defs>
  <g id="Layer_1-2" data-name="Layer 1">
    <g>
      <rect class="cls-1" width="212.94" height="212.94" rx="30.43" ry="30.43"/>
      <path class="cls-2" d="M125.29,182.51c-4.15,0-8.17-2.17-10.37-6.03l-23.24-40.95c-2.09-3.69-2.07-8.21.07-11.87,2.13-3.66,6.05-5.92,10.29-5.92h36.39v-37.63l-32.13-25.22-31.78,25.18v89.93c0,6.58-5.33,11.91-11.91,11.91s-11.91-5.33-11.91-11.91v-91.06c0-6.6,2.97-12.73,8.14-16.83l34.12-27.03c7.81-6.19,18.75-6.22,26.59-.06l34.48,27.06c5.22,4.1,8.22,10.25,8.22,16.89v50.67c0,6.58-5.33,11.91-11.91,11.91h-27.84l13.15,23.16c3.25,5.72,1.24,12.99-4.48,16.23-1.86,1.05-3.88,1.55-5.87,1.55Z"/>
    </g>
  </g>
</svg>